<svg width="80" height="81" viewBox="0 0 80 81" fill="none" xmlns="http://www.w3.org/2000/svg">
<rect x="0.472656" width="78.7473" height="81" rx="39.3737" fill="#00ABAB"/>
<path opacity="0.2" d="M37.4235 61.9107C49.9776 61.9107 60.1546 51.7337 60.1546 39.1796C60.1546 26.6256 49.9776 16.4485 37.4235 16.4485C24.8695 16.4485 14.6924 26.6256 14.6924 39.1796C14.6924 51.7337 24.8695 61.9107 37.4235 61.9107Z" fill="white"/>
<path d="M36.7917 22.2369L39.9606 43.2952L58.3046 32.9302" stroke="white" stroke-width="2.71" stroke-linecap="round" stroke-linejoin="round"/>
<path d="M58.3047 32.9302L39.9418 43.2952L36.7856 22.2369C32.2895 22.8678 28.1135 24.9214 24.8688 28.0971C21.6242 31.2728 19.4814 35.4037 18.7541 39.8852C18.0268 44.3667 18.7532 48.9633 20.827 53.0021C22.9008 57.0409 26.2131 60.3098 30.2789 62.3302C34.3447 64.3506 38.9505 65.0163 43.422 64.23C47.8935 63.4437 51.9958 61.2466 55.1285 57.9604C58.2611 54.6742 60.2595 50.4714 60.831 45.9674C61.4026 41.4634 60.5173 36.8947 58.3047 32.9302V32.9302Z" stroke="white" stroke-width="2.71" stroke-linecap="round" stroke-linejoin="round"/>
<path d="M42.4036 20.0339L44.4235 33.492L56.1205 26.8513C56.1205 26.8513 52.6108 19.8319 42.4036 20.0339Z" stroke="white" stroke-width="2.71" stroke-linecap="round" stroke-linejoin="round"/>
</svg>
