<svg width="79" height="81" viewBox="0 0 79 81" fill="none" xmlns="http://www.w3.org/2000/svg">
<rect width="78.7473" height="81" rx="39.3737" fill="#00ABAB"/>
<path opacity="0.2" d="M21.8951 44.1874L46.5246 19.5636C46.796 19.2921 47.1183 19.0767 47.473 18.9298C47.8277 18.7828 48.2078 18.7072 48.5917 18.7072C48.9756 18.7072 49.3558 18.7828 49.7105 18.9298C50.0652 19.0767 50.3874 19.2921 50.6589 19.5636L56.249 25.148C56.7977 25.6972 57.1059 26.4417 57.1059 27.218C57.1059 27.9943 56.7977 28.7388 56.249 29.288L31.5911 53.963C31.3194 54.2248 30.9903 54.4195 30.63 54.5316L18.2556 58.5124C18.1769 58.5328 18.0943 58.5324 18.0158 58.5111C17.9374 58.4897 17.8659 58.4483 17.8085 58.3908C17.751 58.3333 17.7095 58.2619 17.6882 58.1834C17.6669 58.105 17.6664 58.0224 17.6869 57.9437L21.2866 45.228C21.4005 44.8363 21.6096 44.4788 21.8951 44.1874V44.1874Z" fill="white"/>
<path d="M23.7894 45.8024L48.4189 21.1729C48.6903 20.9014 49.0126 20.6861 49.3672 20.5391C49.7219 20.3922 50.1021 20.3165 50.486 20.3165C50.8699 20.3165 51.2501 20.3922 51.6048 20.5391C51.9595 20.6861 52.2817 20.9014 52.5532 21.1729L58.1433 26.7631C58.4148 27.0345 58.6302 27.3568 58.7771 27.7114C58.924 28.0661 58.9997 28.4463 58.9997 28.8302C58.9997 29.2141 58.924 29.5943 58.7771 29.949C58.6302 30.3036 58.4148 30.6259 58.1433 30.8973L33.4854 55.5553C33.2172 55.8217 32.8869 56.0172 32.5243 56.1239L20.1499 60.1047C20.0712 60.1251 19.9886 60.1247 19.9101 60.1034C19.8317 60.082 19.7602 60.0406 19.7027 59.9831C19.6453 59.9256 19.6038 59.8541 19.5825 59.7757C19.5612 59.6973 19.5607 59.6147 19.5812 59.536L23.1809 46.8374C23.2935 46.4467 23.5027 46.0907 23.7894 45.8024Z" stroke="white" stroke-width="2.58488" stroke-miterlimit="10"/>
<path d="M43.4375 26.1603L53.1619 35.8847" stroke="white" stroke-width="2.58488" stroke-miterlimit="10"/>
<path d="M23.1807 46.8374H27.2183L28.7423 50.8921L32.78 52.7403L32.5241 56.141" stroke="white" stroke-width="2.58488" stroke-linecap="round" stroke-linejoin="round"/>
<path d="M48.2997 31.0225L29.3115 50.3177" stroke="white" stroke-width="2.58488" stroke-linecap="round" stroke-linejoin="round"/>
</svg>
