<svg width="79" height="81" viewBox="0 0 79 81" fill="none" xmlns="http://www.w3.org/2000/svg">
<rect width="78.7473" height="81" rx="39.3737" fill="#00ABAB"/>
<path opacity="0.2" d="M24.154 34.6607H47.6606C49.3716 34.6607 51.0125 35.3358 52.2224 36.5375C53.4323 37.7393 54.112 39.3692 54.112 41.0687V44.465C54.112 49.2545 52.1965 53.8479 48.7868 57.2346C45.3772 60.6213 40.7527 62.524 35.9307 62.524V62.524C31.1088 62.524 26.4843 60.6213 23.0747 57.2346C19.665 53.8479 17.7495 49.2545 17.7495 44.465V41.0454C17.7556 39.358 18.4316 37.741 19.6307 36.5457C20.8298 35.3503 22.4552 34.6729 24.154 34.6607V34.6607Z" fill="white"/>
<path d="M27.925 34.6607H51.4492C53.1602 34.6607 54.8011 35.3358 56.011 36.5375C57.2209 37.7393 57.9006 39.3692 57.9006 41.0687V44.4649C57.9006 49.2545 55.985 53.8479 52.5754 57.2346C49.1658 60.6213 44.5413 62.5239 39.7193 62.5239C34.8974 62.5239 30.2729 60.6213 26.8632 57.2346C23.4536 53.8479 21.5381 49.2545 21.5381 44.4649V41.0454C21.5381 39.3459 22.2178 37.716 23.4277 36.5142C24.6375 35.3125 26.214 34.6607 27.925 34.6607Z" stroke="white" stroke-width="2.71" stroke-miterlimit="10"/>
<path d="M57.8118 40.1366C59.1431 39.2569 61.0199 38.686 62.5037 39.554C65.3717 41.1794 64.8849 45.0649 63.6767 47.5816C62.146 50.704 59.0962 52.4167 55.7356 52.9993" stroke="white" stroke-width="2.71" stroke-miterlimit="10"/>
<path d="M36.0592 16.3162H32.7045C32.0517 16.3177 31.426 16.576 30.9644 17.0345C30.5028 17.493 30.2428 18.1144 30.2412 18.7629V19.928C30.2428 20.5764 30.5028 21.1978 30.9644 21.6564C31.426 22.1149 32.0517 22.3731 32.7045 22.3747H45.8126C46.4654 22.3762 47.091 22.6345 47.5526 23.093C48.0143 23.5515 48.2743 24.1729 48.2758 24.8214V25.9865C48.2743 26.6349 48.0143 27.2563 47.5526 27.7149C47.091 28.1734 46.4654 28.4316 45.8126 28.4332H38.8157C38.2295 28.4715 37.6773 28.7201 37.262 29.1327C36.8466 29.5453 36.5963 30.0937 36.5577 30.676" stroke="white" stroke-width="2.71" stroke-linecap="round" stroke-linejoin="round"/>
</svg>
